<?xml version="1.0" encoding="UTF-8" standalone="no"?>
<!-- Created with Inkscape (http://www.inkscape.org/) -->

<svg
   xmlns:dc="http://purl.org/dc/elements/1.1/"
   xmlns:cc="http://creativecommons.org/ns#"
   xmlns:rdf="http://www.w3.org/1999/02/22-rdf-syntax-ns#"
   xmlns:svg="http://www.w3.org/2000/svg"
   xmlns="http://www.w3.org/2000/svg"
   xmlns:xlink="http://www.w3.org/1999/xlink"
   xmlns:sodipodi="http://sodipodi.sourceforge.net/DTD/sodipodi-0.dtd"
   xmlns:inkscape="http://www.inkscape.org/namespaces/inkscape"
   inkscape:export-ydpi="95.32"
   inkscape:export-xdpi="95.32"
   inkscape:export-filename="\\euler\nineties\projects\NLP-seminar\images\classification-problem.png"
   sodipodi:docname="classification-problem.svg"
   inkscape:version="0.48.4 r9939"
   version="1.1"
   id="svg2"
   height="297mm"
   width="210mm">
  <sodipodi:namedview
     id="base"
     pagecolor="#ffffff"
     bordercolor="#666666"
     borderopacity="1.0"
     inkscape:pageopacity="0.0"
     inkscape:pageshadow="2"
     inkscape:zoom="0.98994949"
     inkscape:cx="313.78414"
     inkscape:cy="767.10686"
     inkscape:document-units="px"
     inkscape:current-layer="equation_05"
     showgrid="false"
     inkscape:window-width="1366"
     inkscape:window-height="746"
     inkscape:window-x="-8"
     inkscape:window-y="-8"
     inkscape:window-maximized="1" />
  <defs
     id="defs4">
    <marker
       inkscape:stockid="Arrow1Mend"
       orient="auto"
       refY="0.0"
       refX="0.0"
       id="Arrow1Mend"
       style="overflow:visible;">
      <path
         id="path4101"
         d="M 0.0,0.0 L 5.0,-5.0 L -12.5,0.0 L 5.0,5.0 L 0.0,0.0 z "
         style="fill-rule:evenodd;stroke:#000000;stroke-width:1.0pt;"
         transform="scale(0.4) rotate(180) translate(10,0)" />
    </marker>
    <marker
       inkscape:stockid="Arrow1Lend"
       orient="auto"
       refY="0.0"
       refX="0.0"
       id="Arrow1Lend"
       style="overflow:visible;">
      <path
         id="path4095"
         d="M 0.0,0.0 L 5.0,-5.0 L -12.5,0.0 L 5.0,5.0 L 0.0,0.0 z "
         style="fill-rule:evenodd;stroke:#000000;stroke-width:1.0pt;"
         transform="scale(0.8) rotate(180) translate(12.5,0)" />
    </marker>
    <marker
       inkscape:stockid="Arrow1Lend"
       orient="auto"
       refY="0"
       refX="0"
       id="Arrow1Lend-4"
       style="overflow:visible">
      <path
         id="path4095-0"
         d="M 0,0 5,-5 -12.5,0 5,5 0,0 z"
         style="fill-rule:evenodd;stroke:#000000;stroke-width:1pt"
         transform="matrix(-0.8,0,0,-0.8,-10,0)"
         inkscape:connector-curvature="0" />
    </marker>
    <marker
       inkscape:stockid="Arrow1Lend"
       orient="auto"
       refY="0"
       refX="0"
       id="Arrow1Lend-8"
       style="overflow:visible">
      <path
         id="path4095-2"
         d="M 0,0 5,-5 -12.5,0 5,5 0,0 z"
         style="fill-rule:evenodd;stroke:#000000;stroke-width:1pt"
         transform="matrix(-0.8,0,0,-0.8,-10,0)"
         inkscape:connector-curvature="0" />
    </marker>
    <marker
       inkscape:stockid="Arrow1Lend"
       orient="auto"
       refY="0"
       refX="0"
       id="Arrow1Lend-5"
       style="overflow:visible">
      <path
         id="path4095-5"
         d="M 0,0 5,-5 -12.5,0 5,5 0,0 z"
         style="fill-rule:evenodd;stroke:#000000;stroke-width:1pt"
         transform="matrix(-0.8,0,0,-0.8,-10,0)"
         inkscape:connector-curvature="0" />
    </marker>
    <marker
       inkscape:stockid="Arrow1Lend"
       orient="auto"
       refY="0"
       refX="0"
       id="Arrow1Lend-7"
       style="overflow:visible">
      <path
         id="path4095-1"
         d="M 0,0 5,-5 -12.5,0 5,5 0,0 z"
         style="fill-rule:evenodd;stroke:#000000;stroke-width:1pt"
         transform="matrix(-0.8,0,0,-0.8,-10,0)"
         inkscape:connector-curvature="0" />
    </marker>
  </defs>
  <metadata
     id="metadata7">
    <rdf:RDF>
      <cc:Work
         rdf:about="">
        <dc:format>image/svg+xml</dc:format>
        <dc:type
           rdf:resource="http://purl.org/dc/dcmitype/StillImage" />
        <dc:title></dc:title>
      </cc:Work>
    </rdf:RDF>
  </metadata>
  <g
     inkscape:label="レイヤー 1"
     inkscape:groupmode="layer"
     id="layer1">
    <rect
       style="fill:#f9f9f9;stroke:#000000;stroke-width:0.96701872;stroke-linecap:round;stroke-linejoin:round;stroke-miterlimit:4;stroke-opacity:1;stroke-dasharray:none;stroke-dashoffset:0"
       id="rect2985-1-7-4-0-9-4-8-8-2-4-5"
       width="43.957642"
       height="71.309059"
       x="56.751492"
       y="256.80484" />
    <rect
       style="fill:#f9f9f9;stroke:#000000;stroke-width:0.96701872;stroke-linecap:round;stroke-linejoin:round;stroke-miterlimit:4;stroke-opacity:1;stroke-dasharray:none;stroke-dashoffset:0"
       id="rect2985-1-5"
       width="43.957642"
       height="71.309059"
       x="69.318886"
       y="262.96649" />
    <rect
       style="fill:#f9f9f9;stroke:#000000;stroke-width:0.96701872;stroke-linecap:round;stroke-linejoin:round;stroke-miterlimit:4;stroke-opacity:1;stroke-dasharray:none;stroke-dashoffset:0"
       id="rect2985-17"
       width="43.957642"
       height="71.309059"
       x="81.886261"
       y="269.12811" />
    <rect
       style="fill:#f9f9f9;stroke:#000000;stroke-width:0.96701872;stroke-linecap:round;stroke-linejoin:round;stroke-miterlimit:4;stroke-opacity:1;stroke-dasharray:none;stroke-dashoffset:0"
       id="rect2985-1-7-1"
       width="43.957642"
       height="71.309059"
       x="94.453651"
       y="275.28961" />
    <rect
       style="fill:#f9f9f9;stroke:#000000;stroke-width:0.96701872;stroke-linecap:round;stroke-linejoin:round;stroke-miterlimit:4;stroke-opacity:1;stroke-dasharray:none;stroke-dashoffset:0"
       id="rect2985-1-7-4-1"
       width="43.957642"
       height="71.309059"
       x="107.02097"
       y="281.45126" />
    <rect
       style="fill:#f9f9f9;stroke:#000000;stroke-width:0.96701872;stroke-linecap:round;stroke-linejoin:round;stroke-miterlimit:4;stroke-opacity:1;stroke-dasharray:none;stroke-dashoffset:0"
       id="rect2985-1-7-4-0-9-4-8-5"
       width="43.957642"
       height="71.309059"
       x="119.58837"
       y="287.61276" />
    <rect
       style="fill:#f9f9f9;stroke:#000000;stroke-width:0.96701872;stroke-linecap:round;stroke-linejoin:round;stroke-miterlimit:4;stroke-opacity:1;stroke-dasharray:none;stroke-dashoffset:0"
       id="rect2985-1-7-4-0-2"
       width="43.957642"
       height="71.309059"
       x="132.15576"
       y="293.77438" />
    <text
       xml:space="preserve"
       style="font-size:12.3747797px;font-style:normal;font-variant:normal;font-weight:normal;font-stretch:normal;text-align:start;line-height:125%;letter-spacing:0px;word-spacing:0px;writing-mode:lr-tb;text-anchor:start;fill:#000000;fill-opacity:1;stroke:none;font-family:HGPGothicE;-inkscape-font-specification:HGPGothicE"
       x="138.57501"
       y="333.34598"
       id="text4722"
       sodipodi:linespacing="125%"><tspan
         sodipodi:role="line"
         id="tspan4724"
         x="138.57501"
         y="333.34598">メール</tspan></text>
    <text
       sodipodi:linespacing="125%"
       id="text3075"
       y="252.32137"
       x="316.82593"
       style="font-size:16px;font-style:normal;font-variant:normal;font-weight:normal;font-stretch:normal;text-align:start;line-height:125%;letter-spacing:0px;word-spacing:0px;writing-mode:lr-tb;text-anchor:start;fill:#000000;fill-opacity:1;stroke:none;font-family:HGPGothicM;-inkscape-font-specification:HGPGothicM"
       xml:space="preserve"><tspan
         y="252.32137"
         x="316.82593"
         id="tspan3077"
         sodipodi:role="line">1. 家族からのメール</tspan></text>
    <text
       sodipodi:linespacing="125%"
       id="text3079"
       y="335.5972"
       x="317.82593"
       style="font-size:16px;font-style:normal;font-variant:normal;font-weight:normal;font-stretch:normal;text-align:start;line-height:125%;letter-spacing:0px;word-spacing:0px;writing-mode:lr-tb;text-anchor:start;fill:#000000;fill-opacity:1;stroke:none;font-family:HGPGothicM;-inkscape-font-specification:HGPGothicM"
       xml:space="preserve"><tspan
         y="335.5972"
         x="317.82593"
         id="tspan3081"
         sodipodi:role="line">3. 仕事関係のメール</tspan></text>
    <text
       sodipodi:linespacing="125%"
       id="text3083"
       y="377.32895"
       x="318.20093"
       style="font-size:16px;font-style:normal;font-variant:normal;font-weight:normal;font-stretch:normal;text-align:start;line-height:125%;letter-spacing:0px;word-spacing:0px;writing-mode:lr-tb;text-anchor:start;fill:#000000;fill-opacity:1;stroke:none;font-family:HGPGothicM;-inkscape-font-specification:HGPGothicM"
       xml:space="preserve"><tspan
         y="377.32895"
         x="318.20093"
         id="tspan3085"
         sodipodi:role="line">4. 迷惑メール</tspan></text>
    <text
       sodipodi:linespacing="125%"
       id="text3087"
       y="293.86554"
       x="317.76343"
       style="font-size:16px;font-style:normal;font-variant:normal;font-weight:normal;font-stretch:normal;text-align:start;line-height:125%;letter-spacing:0px;word-spacing:0px;writing-mode:lr-tb;text-anchor:start;fill:#000000;fill-opacity:1;stroke:none;font-family:HGPGothicM;-inkscape-font-specification:HGPGothicM"
       xml:space="preserve"><tspan
         y="293.86554"
         x="317.76343"
         id="tspan3089"
         sodipodi:role="line">2. 友人からのメール</tspan></text>
    <text
       sodipodi:linespacing="125%"
       id="text3079-1"
       y="418.71686"
       x="317.76343"
       style="font-size:16px;font-style:normal;font-variant:normal;font-weight:normal;font-stretch:normal;text-align:start;line-height:125%;letter-spacing:0px;word-spacing:0px;writing-mode:lr-tb;text-anchor:start;fill:#000000;fill-opacity:1;stroke:none;font-family:HGPGothicM;-inkscape-font-specification:HGPGothicM"
       xml:space="preserve"><tspan
         y="418.71686"
         x="317.76343"
         id="tspan3081-7"
         sodipodi:role="line">5. その他のメール</tspan></text>
    <path
       inkscape:connector-curvature="0"
       id="path3112"
       d="M 197.9899,331.11326 305.06607,291.71731"
       style="fill:none;stroke:#000000;stroke-width:1px;stroke-linecap:butt;stroke-linejoin:miter;stroke-opacity:1;marker-end:url(#Arrow1Lend)" />
    <path
       sodipodi:nodetypes="cc"
       inkscape:connector-curvature="0"
       id="path3112-9"
       d="m 196.97975,336.6691 111.11678,-3.03046"
       style="fill:none;stroke:#000000;stroke-width:1px;stroke-linecap:butt;stroke-linejoin:miter;stroke-opacity:1;marker-end:url(#Arrow1Lend)" />
    <path
       sodipodi:nodetypes="cc"
       inkscape:connector-curvature="0"
       id="path3112-4"
       d="M 197.9899,324.54727 304.05592,256.86705"
       style="fill:none;stroke:#000000;stroke-width:1px;stroke-linecap:butt;stroke-linejoin:miter;stroke-opacity:1;marker-end:url(#Arrow1Lend)" />
    <path
       sodipodi:nodetypes="cc"
       inkscape:connector-curvature="0"
       id="path3112-9-1"
       d="m 196.97975,342.85342 111.11678,24.24366"
       style="fill:none;stroke:#000000;stroke-width:1px;stroke-linecap:butt;stroke-linejoin:miter;stroke-opacity:1;marker-end:url(#Arrow1Lend)" />
    <path
       sodipodi:nodetypes="cc"
       inkscape:connector-curvature="0"
       id="path3112-9-1-1"
       d="m 196.97975,347.824 108.08632,53.53808"
       style="fill:none;stroke:#000000;stroke-width:1px;stroke-linecap:butt;stroke-linejoin:miter;stroke-opacity:1;marker-end:url(#Arrow1Lend)" />
  </g>
  <g
     transform="matrix(1.6887795,0,0,1.6887795,60.321471,155.72203)"
     id="equation_05"
     style="fill:#000000"
     title="$p(1|\mathbf{x})=0.1$">
    <defs
       id="defs6444">
      <path
         inkscape:connector-curvature="0"
         d="m 3.46,-2.46 1.17,-1.3 C 4.76,-3.9 4.82,-3.97 5.65,-3.97 V -4.44 C 5.3,-4.42 4.78,-4.41 4.73,-4.41 4.48,-4.41 3.98,-4.43 3.7,-4.44 v 0.47 c 0.14,0 0.26,0.02 0.38,0.09 C 4.04,-3.82 4.04,-3.8 4,-3.76 L 3.16,-2.82 2.18,-3.97 h 0.4 v -0.47 c -0.26,0.01 -0.89,0.03 -1.21,0.03 -0.32,0 -0.77,-0.02 -1.1,-0.03 v 0.47 h 0.71 l 1.56,1.84 -1.31,1.47 C 1.06,-0.47 0.7,-0.47 0.22,-0.47 V 0 c 0.35,-0.02 0.87,-0.03 0.92,-0.03 0.25,0 0.83,0.02 1.03,0.03 v -0.47 c -0.18,0 -0.37,-0.05 -0.37,-0.11 0,-0.01 0,-0.02 0.07,-0.1 l 0.97,-1.09 1.1,1.3 H 3.55 V 0 c 0.26,-0.01 0.87,-0.03 1.2,-0.03 0.32,0 0.77,0.02 1.1,0.03 V -0.47 H 5.14 L 3.46,-2.46 z"
         id="equation_05_00" />
      <path
         inkscape:connector-curvature="0"
         d="m 1.92,-0.53 c 0,-0.29 -0.24,-0.53 -0.53,-0.53 -0.29,0 -0.53,0.24 -0.53,0.53 C 0.86,-0.24 1.1,0 1.39,0 1.68,0 1.92,-0.24 1.92,-0.53 z"
         id="equation_05_01" />
      <path
         inkscape:connector-curvature="0"
         d="m 0.45,1.22 c -0.08,0.34 -0.1,0.41 -0.54,0.41 -0.12,0 -0.23,0 -0.23,0.19 0,0.08 0.05,0.12 0.13,0.12 0.27,0 0.56,-0.03 0.84,-0.03 0.33,0 0.67,0.03 0.99,0.03 0.05,0 0.18,0 0.18,-0.2 0,-0.11 -0.1,-0.11 -0.24,-0.11 -0.5,0 -0.5,-0.07 -0.5,-0.16 0,-0.12 0.42,-1.75 0.49,-2 0.13,0.29 0.41,0.64 0.92,0.64 1.16,0 2.41,-1.46 2.41,-2.93 0,-0.94 -0.57,-1.6 -1.33,-1.6 -0.5,0 -0.98,0.36 -1.31,0.75 -0.1,-0.54 -0.53,-0.75 -0.9,-0.75 -0.46,0 -0.65,0.39 -0.74,0.57 -0.18,0.34 -0.31,0.94 -0.31,0.97 0,0.1 0.1,0.1 0.12,0.1 0.1,0 0.11,-0.01 0.17,-0.23 0.17,-0.71 0.37,-1.19 0.73,-1.19 0.17,0 0.31,0.08 0.31,0.46 0,0.23 -0.03,0.34 -0.07,0.51 L 0.45,1.22 z m 1.76,-4.34 c 0.07,-0.27 0.34,-0.55 0.52,-0.7 0.35,-0.31 0.64,-0.38 0.81,-0.38 0.4,0 0.64,0.35 0.64,0.94 0,0.59 -0.33,1.74 -0.51,2.12 -0.34,0.7 -0.82,1.03 -1.19,1.03 -0.66,0 -0.79,-0.83 -0.79,-0.89 0,-0.02 0,-0.04 0.03,-0.16 l 0.49,-1.96 z"
         id="equation_05_02" />
      <path
         inkscape:connector-curvature="0"
         d="M 3.31,2.4 C 3.31,2.37 3.31,2.35 3.14,2.18 1.89,0.92 1.57,-0.97 1.57,-2.5 c 0,-1.74 0.38,-3.48 1.61,-4.73 0.13,-0.12 0.13,-0.14 0.13,-0.17 0,-0.07 -0.04,-0.1 -0.1,-0.1 -0.1,0 -1,0.68 -1.59,1.95 -0.51,1.1 -0.63,2.21 -0.63,3.05 0,0.78 0.11,1.99 0.66,3.12 0.6,1.23 1.46,1.88 1.56,1.88 0.06,0 0.1,-0.03 0.1,-0.1 z"
         id="equation_05_03" />
      <path
         inkscape:connector-curvature="0"
         d="M 2.89,-2.5 C 2.89,-3.28 2.78,-4.49 2.23,-5.62 1.63,-6.85 0.77,-7.5 0.67,-7.5 c -0.06,0 -0.1,0.04 -0.1,0.1 0,0.03 0,0.05 0.19,0.23 0.98,0.99 1.55,2.58 1.55,4.67 0,1.71 -0.37,3.47 -1.61,4.73 -0.13,0.12 -0.13,0.14 -0.13,0.17 0,0.06 0.04,0.1 0.1,0.1 0.1,0 1,-0.68 1.59,-1.95 0.51,-1.1 0.63,-2.21 0.63,-3.05 z"
         id="equation_05_04" />
      <path
         inkscape:connector-curvature="0"
         d="M 4.6,-3.2 C 4.6,-4 4.55,-4.8 4.2,-5.54 3.74,-6.5 2.92,-6.66 2.5,-6.66 1.9,-6.66 1.17,-6.4 0.76,-5.47 0.44,-4.78 0.39,-4 0.39,-3.2 c 0,0.75 0.04,1.65 0.45,2.41 C 1.27,0.02 2,0.22 2.49,0.22 3.03,0.22 3.79,0.01 4.23,-0.94 4.55,-1.63 4.6,-2.41 4.6,-3.2 z M 2.49,0 C 2.1,0 1.51,-0.25 1.33,-1.21 1.22,-1.81 1.22,-2.73 1.22,-3.32 c 0,-0.64 0,-1.3 0.08,-1.84 0.19,-1.19 0.94,-1.28 1.19,-1.28 0.33,0 0.99,0.18 1.18,1.17 0.1,0.56 0.1,1.32 0.1,1.95 0,0.75 0,1.43 -0.11,2.07 C 3.51,-0.3 2.94,0 2.49,0 z"
         id="equation_05_05" />
      <path
         inkscape:connector-curvature="0"
         d="m 2.94,-6.4 c 0,-0.24 0,-0.26 -0.23,-0.26 -0.62,0.64 -1.5,0.64 -1.82,0.64 v 0.31 c 0.2,0 0.79,0 1.31,-0.26 v 5.18 c 0,0.36 -0.03,0.48 -0.93,0.48 H 0.95 V 0 c 0.35,-0.03 1.22,-0.03 1.62,-0.03 0.4,0 1.27,0 1.62,0.03 V -0.31 H 3.87 c -0.9,0 -0.93,-0.11 -0.93,-0.48 V -6.4 z"
         id="equation_05_06" />
      <path
         inkscape:connector-curvature="0"
         d="m 6.87,-3.27 c 0.15,0 0.34,0 0.34,-0.2 0,-0.2 -0.19,-0.2 -0.33,-0.2 H 0.89 c -0.14,0 -0.33,0 -0.33,0.2 0,0.2 0.19,0.2 0.34,0.2 h 5.97 z m 0.01,1.94 c 0.14,0 0.33,0 0.33,-0.2 0,-0.2 -0.19,-0.2 -0.34,-0.2 H 0.9 c -0.15,0 -0.34,0 -0.34,0.2 0,0.2 0.19,0.2 0.33,0.2 h 5.99 z"
         id="equation_05_07" />
      <path
         inkscape:connector-curvature="0"
         d="m 1.59,-7.14 c 0,-0.18 0,-0.36 -0.2,-0.36 -0.2,0 -0.2,0.18 -0.2,0.36 v 9.28 c 0,0.18 0,0.36 0.2,0.36 0.2,0 0.2,-0.18 0.2,-0.36 v -9.28 z"
         id="equation_05_08" />
    </defs>
    <g
       title="$p(k|\mathbf{x})=?$"
       style="fill:#ff0000"
       id="equation_00"
       transform="matrix(1.2834658,0,0,1.2834658,-21.736158,-18.56701)">
      <defs
         id="defs8816">
        <path
           id="equation_00_00"
           d="m 3.46,-2.46 1.17,-1.3 C 4.76,-3.9 4.82,-3.97 5.65,-3.97 V -4.44 C 5.3,-4.42 4.78,-4.41 4.73,-4.41 4.48,-4.41 3.98,-4.43 3.7,-4.44 v 0.47 c 0.14,0 0.26,0.02 0.38,0.09 C 4.04,-3.82 4.04,-3.8 4,-3.76 L 3.16,-2.82 2.18,-3.97 h 0.4 v -0.47 c -0.26,0.01 -0.89,0.03 -1.21,0.03 -0.32,0 -0.77,-0.02 -1.1,-0.03 v 0.47 h 0.71 l 1.56,1.84 -1.31,1.47 C 1.06,-0.47 0.7,-0.47 0.22,-0.47 V 0 c 0.35,-0.02 0.87,-0.03 0.92,-0.03 0.25,0 0.83,0.02 1.03,0.03 v -0.47 c -0.18,0 -0.37,-0.05 -0.37,-0.11 0,-0.01 0,-0.02 0.07,-0.1 l 0.97,-1.09 1.1,1.3 H 3.55 V 0 c 0.26,-0.01 0.87,-0.03 1.2,-0.03 0.32,0 0.77,0.02 1.1,0.03 V -0.47 H 5.14 L 3.46,-2.46 z"
           inkscape:connector-curvature="0" />
        <path
           id="equation_00_01"
           d="m 2.87,-6.83 c 0,-0.01 0,-0.11 -0.13,-0.11 -0.23,0 -0.96,0.08 -1.22,0.1 -0.08,0.01 -0.19,0.02 -0.19,0.2 0,0.12 0.09,0.12 0.24,0.12 0.48,0 0.5,0.07 0.5,0.17 l -0.03,0.2 -1.45,5.76 c -0.04,0.14 -0.04,0.16 -0.04,0.22 0,0.23 0.2,0.28 0.29,0.28 0.13,0 0.28,-0.09 0.34,-0.21 0.05,-0.09 0.5,-1.94 0.56,-2.19 0.34,0.03 1.16,0.19 1.16,0.85 0,0.07 0,0.11 -0.03,0.21 -0.02,0.12 -0.04,0.24 -0.04,0.35 0,0.59 0.4,0.99 0.92,0.99 0.3,0 0.57,-0.16 0.79,-0.53 0.25,-0.44 0.36,-0.99 0.36,-1.01 0,-0.1 -0.09,-0.1 -0.12,-0.1 -0.1,0 -0.11,0.04 -0.14,0.18 -0.2,0.73 -0.43,1.24 -0.87,1.24 -0.19,0 -0.32,-0.11 -0.32,-0.47 0,-0.17 0.04,-0.4 0.08,-0.56 C 3.57,-1.31 3.57,-1.35 3.57,-1.45 3.57,-2.1 2.94,-2.39 2.09,-2.5 2.4,-2.68 2.72,-3 2.95,-3.24 3.43,-3.77 3.89,-4.2 4.38,-4.2 c 0.06,0 0.07,0 0.09,0.01 0.12,0.02 0.13,0.02 0.21,0.08 0.02,0.01 0.02,0.02 0.04,0.04 -0.48,0.03 -0.57,0.42 -0.57,0.54 0,0.16 0.11,0.35 0.38,0.35 0.26,0 0.55,-0.22 0.55,-0.61 0,-0.3 -0.23,-0.63 -0.68,-0.63 -0.28,0 -0.74,0.08 -1.46,0.88 -0.34,0.38 -0.73,0.78 -1.11,0.93 l 1.04,-4.22 z"
           inkscape:connector-curvature="0" />
        <path
           id="equation_00_02"
           d="m 0.45,1.22 c -0.08,0.34 -0.1,0.41 -0.54,0.41 -0.12,0 -0.23,0 -0.23,0.19 0,0.08 0.05,0.12 0.13,0.12 0.27,0 0.56,-0.03 0.84,-0.03 0.33,0 0.67,0.03 0.99,0.03 0.05,0 0.18,0 0.18,-0.2 0,-0.11 -0.1,-0.11 -0.24,-0.11 -0.5,0 -0.5,-0.07 -0.5,-0.16 0,-0.12 0.42,-1.75 0.49,-2 0.13,0.29 0.41,0.64 0.92,0.64 1.16,0 2.41,-1.46 2.41,-2.93 0,-0.94 -0.57,-1.6 -1.33,-1.6 -0.5,0 -0.98,0.36 -1.31,0.75 -0.1,-0.54 -0.53,-0.75 -0.9,-0.75 -0.46,0 -0.65,0.39 -0.74,0.57 -0.18,0.34 -0.31,0.94 -0.31,0.97 0,0.1 0.1,0.1 0.12,0.1 0.1,0 0.11,-0.01 0.17,-0.23 0.17,-0.71 0.37,-1.19 0.73,-1.19 0.17,0 0.31,0.08 0.31,0.46 0,0.23 -0.03,0.34 -0.07,0.51 L 0.45,1.22 z m 1.76,-4.34 c 0.07,-0.27 0.34,-0.55 0.52,-0.7 0.35,-0.31 0.64,-0.38 0.81,-0.38 0.4,0 0.64,0.35 0.64,0.94 0,0.59 -0.33,1.74 -0.51,2.12 -0.34,0.7 -0.82,1.03 -1.19,1.03 -0.66,0 -0.79,-0.83 -0.79,-0.89 0,-0.02 0,-0.04 0.03,-0.16 l 0.49,-1.96 z"
           inkscape:connector-curvature="0" />
        <path
           id="equation_00_03"
           d="M 3.31,2.4 C 3.31,2.37 3.31,2.35 3.14,2.18 1.89,0.92 1.57,-0.97 1.57,-2.5 c 0,-1.74 0.38,-3.48 1.61,-4.73 0.13,-0.12 0.13,-0.14 0.13,-0.17 0,-0.07 -0.04,-0.1 -0.1,-0.1 -0.1,0 -1,0.68 -1.59,1.95 -0.51,1.1 -0.63,2.21 -0.63,3.05 0,0.78 0.11,1.99 0.66,3.12 0.6,1.23 1.46,1.88 1.56,1.88 0.06,0 0.1,-0.03 0.1,-0.1 z"
           inkscape:connector-curvature="0" />
        <path
           id="equation_00_04"
           d="M 2.89,-2.5 C 2.89,-3.28 2.78,-4.49 2.23,-5.62 1.63,-6.85 0.77,-7.5 0.67,-7.5 c -0.06,0 -0.1,0.04 -0.1,0.1 0,0.03 0,0.05 0.19,0.23 0.98,0.99 1.55,2.58 1.55,4.67 0,1.71 -0.37,3.47 -1.61,4.73 -0.13,0.12 -0.13,0.14 -0.13,0.17 0,0.06 0.04,0.1 0.1,0.1 0.1,0 1,-0.68 1.59,-1.95 0.51,-1.1 0.63,-2.21 0.63,-3.05 z"
           inkscape:connector-curvature="0" />
        <path
           id="equation_00_05"
           d="m 6.87,-3.27 c 0.15,0 0.34,0 0.34,-0.2 0,-0.2 -0.19,-0.2 -0.33,-0.2 H 0.89 c -0.14,0 -0.33,0 -0.33,0.2 0,0.2 0.19,0.2 0.34,0.2 h 5.97 z m 0.01,1.94 c 0.14,0 0.33,0 0.33,-0.2 0,-0.2 -0.19,-0.2 -0.34,-0.2 H 0.9 c -0.15,0 -0.34,0 -0.34,0.2 0,0.2 0.19,0.2 0.33,0.2 h 5.99 z"
           inkscape:connector-curvature="0" />
        <path
           id="equation_00_06"
           d="m 2.35,-2.49 c 0,-1.26 0.97,-1.97 1.32,-2.23 0.27,-0.2 0.48,-0.56 0.48,-0.98 0,-0.58 -0.4,-1.35 -1.89,-1.35 -1.08,0 -1.7,0.68 -1.7,1.33 0,0.34 0.23,0.48 0.46,0.48 0.28,0 0.46,-0.2 0.46,-0.46 0,-0.45 -0.42,-0.45 -0.56,-0.45 0.31,-0.53 0.89,-0.68 1.31,-0.68 1.09,0 1.09,0.68 1.09,1.07 0,0.59 -0.16,0.77 -0.34,0.95 -0.66,0.72 -0.88,1.64 -0.88,2.25 v 0.45 c 0,0.18 0,0.24 0.12,0.24 0.13,0 0.13,-0.09 0.13,-0.27 v -0.35 z m 0.4,1.96 c 0,-0.29 -0.24,-0.53 -0.53,-0.53 -0.29,0 -0.53,0.24 -0.53,0.53 0,0.29 0.24,0.53 0.53,0.53 0.29,0 0.53,-0.24 0.53,-0.53 z"
           inkscape:connector-curvature="0" />
        <path
           id="equation_00_07"
           d="m 1.59,-7.14 c 0,-0.18 0,-0.36 -0.2,-0.36 -0.2,0 -0.2,0.18 -0.2,0.36 v 9.28 c 0,0.18 0,0.36 0.2,0.36 0.2,0 0.2,-0.18 0.2,-0.36 v -9.28 z"
           inkscape:connector-curvature="0" />
      </defs>
      <g
         id="equation_00_g"
         style="fill:#ff0000">
        <use
           id="use8827"
           y="63"
           xlink:href="#equation_00_02"
           x="77"
           width="744.09448"
           height="1052.3622"
           style="fill:#ff0000" />
        <use
           id="use8829"
           y="63"
           xlink:href="#equation_00_03"
           x="82.031303"
           width="744.09448"
           height="1052.3622"
           style="fill:#ff0000" />
        <use
           id="use8831"
           y="63"
           xlink:href="#equation_00_01"
           x="85.920197"
           width="744.09448"
           height="1052.3622"
           style="fill:#ff0000" />
        <use
           id="use8833"
           y="63"
           xlink:href="#equation_00_07"
           x="91.441002"
           width="744.09448"
           height="1052.3622"
           style="fill:#ff0000" />
        <use
           id="use8835"
           y="63"
           xlink:href="#equation_00_00"
           x="94.218803"
           width="744.09448"
           height="1052.3622"
           style="fill:#ff0000" />
        <use
           id="use8837"
           y="63"
           xlink:href="#equation_00_04"
           x="100.288"
           width="744.09448"
           height="1052.3622"
           style="fill:#ff0000" />
        <use
           id="use8839"
           y="63"
           xlink:href="#equation_00_05"
           x="106.955"
           width="744.09448"
           height="1052.3622"
           style="fill:#ff0000" />
        <use
           id="use8841"
           y="63"
           xlink:href="#equation_00_06"
           x="114.733"
           width="744.09448"
           height="1052.3622"
           style="fill:#ff0000" />
      </g>
    </g>
  </g>
</svg>
