<?xml version="1.0" encoding="UTF-8" standalone="no"?>
<!-- Created with Inkscape (http://www.inkscape.org/) -->

<svg
   xmlns:dc="http://purl.org/dc/elements/1.1/"
   xmlns:cc="http://creativecommons.org/ns#"
   xmlns:rdf="http://www.w3.org/1999/02/22-rdf-syntax-ns#"
   xmlns:svg="http://www.w3.org/2000/svg"
   xmlns="http://www.w3.org/2000/svg"
   xmlns:sodipodi="http://sodipodi.sourceforge.net/DTD/sodipodi-0.dtd"
   xmlns:inkscape="http://www.inkscape.org/namespaces/inkscape"
   width="210mm"
   height="297mm"
   id="svg2"
   version="1.1"
   inkscape:version="0.48.4 r9939"
   inkscape:export-filename="\\euler\nineties\projects\NLP-seminar\images\classification-clustering.png"
   inkscape:export-xdpi="95.32"
   inkscape:export-ydpi="95.32"
   sodipodi:docname="新規ドキュメント 1">
  <defs
     id="defs4" />
  <sodipodi:namedview
     id="base"
     pagecolor="#ffffff"
     bordercolor="#666666"
     borderopacity="1.0"
     inkscape:pageopacity="0.0"
     inkscape:pageshadow="2"
     inkscape:zoom="0.7"
     inkscape:cx="306.43847"
     inkscape:cy="571.78417"
     inkscape:document-units="px"
     inkscape:current-layer="layer1"
     showgrid="false"
     inkscape:window-width="1366"
     inkscape:window-height="746"
     inkscape:window-x="-8"
     inkscape:window-y="-8"
     inkscape:window-maximized="1" />
  <metadata
     id="metadata7">
    <rdf:RDF>
      <cc:Work
         rdf:about="">
        <dc:format>image/svg+xml</dc:format>
        <dc:type
           rdf:resource="http://purl.org/dc/dcmitype/StillImage" />
        <dc:title></dc:title>
      </cc:Work>
    </rdf:RDF>
  </metadata>
  <g
     inkscape:label="レイヤー 1"
     inkscape:groupmode="layer"
     id="layer1">
    <path
       sodipodi:type="arc"
       style="fill:#000000;fill-opacity:1;stroke:none"
       id="path2985"
       sodipodi:cx="153.57143"
       sodipodi:cy="297.36218"
       sodipodi:rx="6.4285712"
       sodipodi:ry="6.4285712"
       d="m 160,297.36218 a 6.4285712,6.4285712 0 1 1 -1.2e-4,-0.0395 l -6.42845,0.0395 z"
       sodipodi:start="0"
       sodipodi:end="6.2770372" />
    <path
       transform="translate(47.857145,219.28571)"
       sodipodi:type="arc"
       style="fill:#000000;fill-opacity:1;stroke:none"
       id="path2985-1"
       sodipodi:cx="153.57143"
       sodipodi:cy="297.36218"
       sodipodi:rx="6.4285712"
       sodipodi:ry="6.4285712"
       d="m 160,297.36218 a 6.4285712,6.4285712 0 1 1 -1.2e-4,-0.0395 l -6.42845,0.0395 z"
       sodipodi:start="0"
       sodipodi:end="6.2770372" />
    <path
       transform="translate(-94.999998,49.285717)"
       sodipodi:type="arc"
       style="fill:#000000;fill-opacity:1;stroke:none"
       id="path2985-1-7"
       sodipodi:cx="153.57143"
       sodipodi:cy="297.36218"
       sodipodi:rx="6.4285712"
       sodipodi:ry="6.4285712"
       d="m 160,297.36218 a 6.4285712,6.4285712 0 1 1 -1.2e-4,-0.0395 l -6.42845,0.0395 z"
       sodipodi:start="0"
       sodipodi:end="6.2770372" />
    <path
       transform="translate(279.28572,252.14286)"
       sodipodi:type="arc"
       style="fill:#000000;fill-opacity:1;stroke:none"
       id="path2985-1-7-4"
       sodipodi:cx="153.57143"
       sodipodi:cy="297.36218"
       sodipodi:rx="6.4285712"
       sodipodi:ry="6.4285712"
       d="m 160,297.36218 a 6.4285712,6.4285712 0 1 1 -1.2e-4,-0.0395 l -6.42845,0.0395 z"
       sodipodi:start="0"
       sodipodi:end="6.2770372" />
    <path
       transform="translate(0.71428797,230.71429)"
       sodipodi:type="arc"
       style="fill:#000000;fill-opacity:1;stroke:none"
       id="path2985-1-7-4-0"
       sodipodi:cx="153.57143"
       sodipodi:cy="297.36218"
       sodipodi:rx="6.4285712"
       sodipodi:ry="6.4285712"
       d="m 160,297.36218 a 6.4285712,6.4285712 0 1 1 -1.2e-4,-0.0395 l -6.42845,0.0395 z"
       sodipodi:start="0"
       sodipodi:end="6.2770372" />
    <path
       transform="translate(89.285717,22.14286)"
       sodipodi:type="arc"
       style="fill:#000000;fill-opacity:1;stroke:none"
       id="path2985-1-7-4-0-9"
       sodipodi:cx="153.57143"
       sodipodi:cy="297.36218"
       sodipodi:rx="6.4285712"
       sodipodi:ry="6.4285712"
       d="m 160,297.36218 a 6.4285712,6.4285712 0 1 1 -1.2e-4,-0.0395 l -6.42845,0.0395 z"
       sodipodi:start="0"
       sodipodi:end="6.2770372" />
    <path
       transform="translate(76.428571,289.28571)"
       sodipodi:type="arc"
       style="fill:#000000;fill-opacity:1;stroke:none"
       id="path2985-1-7-4-0-9-4"
       sodipodi:cx="153.57143"
       sodipodi:cy="297.36218"
       sodipodi:rx="6.4285712"
       sodipodi:ry="6.4285712"
       d="m 160,297.36218 a 6.4285712,6.4285712 0 1 1 -1.2e-4,-0.0395 l -6.42845,0.0395 z"
       sodipodi:start="0"
       sodipodi:end="6.2770372" />
    <path
       transform="translate(-57.857141,207.85715)"
       sodipodi:type="arc"
       style="fill:#000000;fill-opacity:1;stroke:none"
       id="path2985-1-7-4-0-9-4-8"
       sodipodi:cx="153.57143"
       sodipodi:cy="297.36218"
       sodipodi:rx="6.4285712"
       sodipodi:ry="6.4285712"
       d="m 160,297.36218 a 6.4285712,6.4285712 0 1 1 -1.2e-4,-0.0395 l -6.42845,0.0395 z"
       sodipodi:start="0"
       sodipodi:end="6.2770372" />
    <path
       transform="translate(259.28572,22.142859)"
       sodipodi:type="arc"
       style="fill:#000000;fill-opacity:1;stroke:none"
       id="path2985-1-7-4-0-9-4-8-8"
       sodipodi:cx="153.57143"
       sodipodi:cy="297.36218"
       sodipodi:rx="6.4285712"
       sodipodi:ry="6.4285712"
       d="m 160,297.36218 a 6.4285712,6.4285712 0 1 1 -1.2e-4,-0.0395 l -6.42845,0.0395 z"
       sodipodi:start="0"
       sodipodi:end="6.2770372" />
    <path
       transform="translate(256.42857,83.57143)"
       sodipodi:type="arc"
       style="fill:#000000;fill-opacity:1;stroke:none"
       id="path2985-1-7-4-0-9-4-8-8-2"
       sodipodi:cx="153.57143"
       sodipodi:cy="297.36218"
       sodipodi:rx="6.4285712"
       sodipodi:ry="6.4285712"
       d="m 160,297.36218 a 6.4285712,6.4285712 0 1 1 -1.2e-4,-0.0395 l -6.42845,0.0395 z"
       sodipodi:start="0"
       sodipodi:end="6.2770372" />
    <path
       transform="translate(133.57143,225)"
       sodipodi:type="arc"
       style="fill:#000000;fill-opacity:1;stroke:none"
       id="path2985-1-7-4-0-9-4-8-8-2-4"
       sodipodi:cx="153.57143"
       sodipodi:cy="297.36218"
       sodipodi:rx="6.4285712"
       sodipodi:ry="6.4285712"
       d="m 160,297.36218 a 6.4285712,6.4285712 0 1 1 -1.2e-4,-0.0395 l -6.42845,0.0395 z"
       sodipodi:start="0"
       sodipodi:end="6.2770372" />
    <path
       transform="translate(25.000003,310.71428)"
       sodipodi:type="arc"
       style="fill:#000000;fill-opacity:1;stroke:none"
       id="path2985-1-7-4-0-9-4-8-8-2-4-5"
       sodipodi:cx="153.57143"
       sodipodi:cy="297.36218"
       sodipodi:rx="6.4285712"
       sodipodi:ry="6.4285712"
       d="m 160,297.36218 a 6.4285712,6.4285712 0 1 1 -1.2e-4,-0.0395 l -6.42845,0.0395 z"
       sodipodi:start="0"
       sodipodi:end="6.2770372" />
    <path
       transform="translate(257.85715,150.71428)"
       sodipodi:type="arc"
       style="fill:#000000;fill-opacity:1;stroke:none"
       id="path2985-1-7-4-0-9-4-8-8-2-4-5-5"
       sodipodi:cx="153.57143"
       sodipodi:cy="297.36218"
       sodipodi:rx="6.4285712"
       sodipodi:ry="6.4285712"
       d="m 160,297.36218 a 6.4285712,6.4285712 0 1 1 -1.2e-4,-0.0395 l -6.42845,0.0395 z"
       sodipodi:start="0"
       sodipodi:end="6.2770372" />
    <path
       transform="matrix(1,0,0,-1,-32.142855,696.86723)"
       sodipodi:type="arc"
       style="fill:#000000;fill-opacity:1;stroke:none"
       id="path2985-1-7-4-0-9-4-8-8-2-4-5-5-1"
       sodipodi:cx="153.57143"
       sodipodi:cy="297.36218"
       sodipodi:rx="6.4285712"
       sodipodi:ry="6.4285712"
       d="m 160,297.36218 a 6.4285712,6.4285712 0 1 1 -1.2e-4,-0.0395 l -6.42845,0.0395 z"
       sodipodi:start="0"
       sodipodi:end="6.2770372" />
    <path
       transform="matrix(1,0,0,-1,62.14286,569.72437)"
       sodipodi:type="arc"
       style="fill:#000000;fill-opacity:1;stroke:none"
       id="path2985-1-7-4-0-9-4-8-8-2-4-5-5-1-7"
       sodipodi:cx="153.57143"
       sodipodi:cy="297.36218"
       sodipodi:rx="6.4285712"
       sodipodi:ry="6.4285712"
       d="m 160,297.36218 a 6.4285712,6.4285712 0 1 1 -1.2e-4,-0.0395 l -6.42845,0.0395 z"
       sodipodi:start="0"
       sodipodi:end="6.2770372" />
    <path
       transform="translate(323.57144,199.28571)"
       sodipodi:type="arc"
       style="fill:#000000;fill-opacity:1;stroke:none"
       id="path2985-1-1"
       sodipodi:cx="153.57143"
       sodipodi:cy="297.36218"
       sodipodi:rx="6.4285712"
       sodipodi:ry="6.4285712"
       d="m 160,297.36218 a 6.4285712,6.4285712 0 1 1 -1.2e-4,-0.0395 l -6.42845,0.0395 z"
       sodipodi:start="0"
       sodipodi:end="6.2770372" />
    <path
       transform="translate(170.71429,-12.14286)"
       sodipodi:type="arc"
       style="fill:#000000;fill-opacity:1;stroke:none"
       id="path2985-1-1-1"
       sodipodi:cx="153.57143"
       sodipodi:cy="297.36218"
       sodipodi:rx="6.4285712"
       sodipodi:ry="6.4285712"
       d="m 160,297.36218 a 6.4285712,6.4285712 0 1 1 -1.2e-4,-0.0395 l -6.42845,0.0395 z"
       sodipodi:start="0"
       sodipodi:end="6.2770372" />
    <path
       transform="translate(327.85714,-4.9999962)"
       sodipodi:type="arc"
       style="fill:#000000;fill-opacity:1;stroke:none"
       id="path2985-1-1-1-5"
       sodipodi:cx="153.57143"
       sodipodi:cy="297.36218"
       sodipodi:rx="6.4285712"
       sodipodi:ry="6.4285712"
       d="m 160,297.36218 a 6.4285712,6.4285712 0 1 1 -1.2e-4,-0.0395 l -6.42845,0.0395 z"
       sodipodi:start="0"
       sodipodi:end="6.2770372" />
    <path
       transform="translate(13.571432,59.285717)"
       sodipodi:type="arc"
       style="fill:#000000;fill-opacity:1;stroke:none"
       id="path2985-1-1-1-5-2"
       sodipodi:cx="153.57143"
       sodipodi:cy="297.36218"
       sodipodi:rx="6.4285712"
       sodipodi:ry="6.4285712"
       d="m 160,297.36218 a 6.4285712,6.4285712 0 1 1 -1.2e-4,-0.0395 l -6.42845,0.0395 z"
       sodipodi:start="0"
       sodipodi:end="6.2770372" />
    <path
       transform="translate(373.57144,93.571427)"
       sodipodi:type="arc"
       style="fill:#000000;fill-opacity:1;stroke:none"
       id="path2985-1-1-7"
       sodipodi:cx="153.57143"
       sodipodi:cy="297.36218"
       sodipodi:rx="6.4285712"
       sodipodi:ry="6.4285712"
       d="m 160,297.36218 a 6.4285712,6.4285712 0 1 1 -1.2e-4,-0.0395 l -6.42845,0.0395 z"
       sodipodi:start="0"
       sodipodi:end="6.2770372" />
    <path
       transform="translate(379.28572,56.428576)"
       sodipodi:type="arc"
       style="fill:#000000;fill-opacity:1;stroke:none"
       id="path2985-1-1-7-6"
       sodipodi:cx="153.57143"
       sodipodi:cy="297.36218"
       sodipodi:rx="6.4285712"
       sodipodi:ry="6.4285712"
       d="m 160,297.36218 a 6.4285712,6.4285712 0 1 1 -1.2e-4,-0.0395 l -6.42845,0.0395 z"
       sodipodi:start="0"
       sodipodi:end="6.2770372" />
    <path
       transform="translate(312.14286,-19.285713)"
       sodipodi:type="arc"
       style="fill:#000000;fill-opacity:1;stroke:none"
       id="path2985-1-1-7-6-1"
       sodipodi:cx="153.57143"
       sodipodi:cy="297.36218"
       sodipodi:rx="6.4285712"
       sodipodi:ry="6.4285712"
       d="m 160,297.36218 a 6.4285712,6.4285712 0 1 1 -1.2e-4,-0.0395 l -6.42845,0.0395 z"
       sodipodi:start="0"
       sodipodi:end="6.2770372" />
    <path
       transform="translate(272.14286,293.57143)"
       sodipodi:type="arc"
       style="fill:#000000;fill-opacity:1;stroke:none"
       id="path2985-1-1-7-6-1-4"
       sodipodi:cx="153.57143"
       sodipodi:cy="297.36218"
       sodipodi:rx="6.4285712"
       sodipodi:ry="6.4285712"
       d="m 160,297.36218 a 6.4285712,6.4285712 0 1 1 -1.2e-4,-0.0395 l -6.42845,0.0395 z"
       sodipodi:start="0"
       sodipodi:end="6.2770372" />
    <path
       transform="translate(365.00001,205)"
       sodipodi:type="arc"
       style="fill:#000000;fill-opacity:1;stroke:none"
       id="path2985-1-1-7-6-1-4-2"
       sodipodi:cx="153.57143"
       sodipodi:cy="297.36218"
       sodipodi:rx="6.4285712"
       sodipodi:ry="6.4285712"
       d="m 160,297.36218 a 6.4285712,6.4285712 0 1 1 -1.2e-4,-0.0395 l -6.42845,0.0395 z"
       sodipodi:start="0"
       sodipodi:end="6.2770372" />
    <path
       transform="translate(306.42857,302.14285)"
       sodipodi:type="arc"
       style="fill:#000000;fill-opacity:1;stroke:none"
       id="path2985-1-1-7-6-1-4-2-3"
       sodipodi:cx="153.57143"
       sodipodi:cy="297.36218"
       sodipodi:rx="6.4285712"
       sodipodi:ry="6.4285712"
       d="m 160,297.36218 a 6.4285712,6.4285712 0 1 1 -1.2e-4,-0.0395 l -6.42845,0.0395 z"
       sodipodi:start="0"
       sodipodi:end="6.2770372" />
    <path
       style="fill:none;stroke:#ff0000;stroke-width:1px;stroke-linecap:butt;stroke-linejoin:miter;stroke-opacity:1"
       d="m -5.7142857,425.21933 c 30.5505527,16.18007 64.1821797,25.3255 96.2418417,37.80109 45.047764,11.6395 93.806584,3.21511 133.417284,-20.72296 80.84774,-35.37361 172.76804,-35.58901 258.27091,-19.74436 52.43181,11.56563 100.83317,35.8196 152.06996,51.23765"
       id="path3430"
       inkscape:connector-curvature="0" />
    <path
       style="fill:none;stroke:#0000ff;stroke-width:1px;stroke-linecap:butt;stroke-linejoin:miter;stroke-opacity:1"
       d="m 431.42857,213.79075 c -35.04044,54.24368 -84.90204,101.82051 -99.50231,166.87423 -21.20963,85.09831 -3.43457,174.14504 -21.59481,259.60989 -3.50475,11.62874 -7.66822,23.07673 -10.3316,34.94446"
       id="path3437"
       inkscape:connector-curvature="0" />
    <text
       xml:space="preserve"
       style="font-size:30.93149567px;font-style:normal;font-variant:normal;font-weight:normal;font-stretch:normal;text-align:start;line-height:125%;letter-spacing:0px;word-spacing:0px;writing-mode:lr-tb;text-anchor:start;fill:#ff0000;fill-opacity:1;stroke:none;font-family:HGPGothicM;-inkscape-font-specification:HGPGothicM"
       x="-157.90109"
       y="497.23453"
       id="text3460"
       sodipodi:linespacing="125%"><tspan
         sodipodi:role="line"
         id="tspan3462"
         x="-157.90109"
         y="497.23453">欲しかった結果</tspan></text>
    <text
       xml:space="preserve"
       style="font-size:30.93149567px;font-style:normal;font-variant:normal;font-weight:normal;font-stretch:normal;text-align:start;line-height:125%;letter-spacing:0px;word-spacing:0px;writing-mode:lr-tb;text-anchor:start;fill:#0000ff;fill-opacity:1;stroke:none;font-family:HGPGothicM;-inkscape-font-specification:HGPGothicM"
       x="350.63339"
       y="687.80194"
       id="text3464"
       sodipodi:linespacing="125%"><tspan
         sodipodi:role="line"
         id="tspan3466"
         x="350.63339"
         y="687.80194">教師なしの学習結果</tspan></text>
  </g>
</svg>
